<?xml version="1.0" encoding="utf-8"?>
<!-- Generator: Adobe Illustrator 16.0.0, SVG Export Plug-In . SVG Version: 6.00 Build 0)  -->
<!DOCTYPE svg PUBLIC "-//W3C//DTD SVG 1.1//EN" "http://www.w3.org/Graphics/SVG/1.1/DTD/svg11.dtd">
<svg version="1.1" id="Layer_1" xmlns="http://www.w3.org/2000/svg" xmlns:xlink="http://www.w3.org/1999/xlink" x="0px" y="0px"
	 width="48px" height="48px" viewBox="0 0 48 48" enable-background="new 0 0 48 48" xml:space="preserve">
<g>
	<path fill="#FFFFFF" d="M20.31,25.903l-5.933,5.987c-0.787,0.793-0.779,2.074,0.012,2.859c0.395,0.391,0.909,0.584,1.423,0.584
		c0.52,0,1.04-0.199,1.435-0.598l5.919-5.975C21.966,28.059,20.988,27.074,20.31,25.903z"/>
	<path fill="#FFFFFF" d="M35.072,21.937c0-3.563-2.42-6.792-6.025-7.683c-0.635-0.158-1.275-0.232-1.9-0.232
		c-3.565-0.002-6.79,2.42-7.686,6.028c-0.157,0.634-0.231,1.271-0.231,1.897c0,1.415,0.395,2.77,1.081,3.956l0.346-0.351
		c0.533-0.539,1.293-0.705,1.975-0.516c-0.614-0.899-0.975-1.967-0.975-3.089c0-0.436,0.05-0.875,0.16-1.314
		c0.618-2.508,2.866-4.186,5.33-4.186c0.436,0,0.875,0.051,1.316,0.161c2.506,0.613,4.182,2.864,4.182,5.328
		c0,0.434-0.049,0.875-0.16,1.32c-0.613,2.506-2.865,4.182-5.332,4.182c-0.436,0-0.877-0.051-1.318-0.158
		c-0.664-0.164-1.265-0.449-1.797-0.816c0.175,0.668,0.01,1.406-0.511,1.932l-0.361,0.365c0.642,0.375,1.332,0.686,2.09,0.873
		c0.633,0.158,1.27,0.232,1.896,0.232c3.564,0,6.797-2.418,7.689-6.028l-1.178-0.291l1.178,0.289
		C34.996,23.204,35.072,22.566,35.072,21.937z"/>
	<path fill="#FFFFFF" d="M24.037,26.465c-0.56-0.387-1.029-0.875-1.406-1.428c-0.682-0.189-1.442-0.023-1.975,0.516l-0.346,0.351
		c0.678,1.171,1.656,2.155,2.855,2.858l0.361-0.365C24.047,27.871,24.212,27.133,24.037,26.465z"/>
</g>
</svg>
