<?xml version="1.0" encoding="utf-8"?>
<!-- Generator: Adobe Illustrator 16.0.0, SVG Export Plug-In . SVG Version: 6.00 Build 0)  -->
<!DOCTYPE svg PUBLIC "-//W3C//DTD SVG 1.1//EN" "http://www.w3.org/Graphics/SVG/1.1/DTD/svg11.dtd">
<svg version="1.1" id="Layer_1" xmlns="http://www.w3.org/2000/svg" xmlns:xlink="http://www.w3.org/1999/xlink" x="0px" y="0px"
	 width="48px" height="48px" viewBox="0 0 48 48" enable-background="new 0 0 48 48" xml:space="preserve">
<g>
	<path fill="#FFFFFF" d="M33.7,23.119l-0.75-3.148l-2.756,0.295c-0.278-0.469-0.601-0.896-0.963-1.279l1.019-2.471l-2.759-1.699
		l-1.721,2.137c-0.597-0.156-1.211-0.234-1.832-0.238l-1.078-2.398l-3.133,0.84l0.368,2.654c-0.433,0.268-0.829,0.572-1.183,0.906
		l-2.379-0.979l-1.7,2.756l2.047,1.652c-0.149,0.563-0.237,1.146-0.25,1.734l-2.332,0.967L15.051,28l2.603-0.279
		c0.301,0.521,0.653,0.994,1.062,1.41l-0.959,2.322l2.758,1.697l1.654-2.049c0.562,0.139,1.133,0.217,1.717,0.223l0.979,2.359
		l3.152-0.75l-0.285-2.678c0.487-0.297,0.937-0.637,1.323-1.02l2.416,0.994l1.699-2.758l-2.138-1.723
		c0.129-0.525,0.201-1.064,0.209-1.607L33.7,23.119z M26.069,28.012c-2.224,1.139-4.955,0.264-6.092-1.963
		c-1.142-2.227-0.263-4.951,1.961-6.094c2.225-1.139,4.953-0.258,6.092,1.965C29.172,24.145,28.295,26.869,26.069,28.012"/>
	<path fill="#FFFFFF" d="M25.478,23.242c0.418,0.814,0.097,1.816-0.717,2.232c-0.814,0.418-1.816,0.096-2.234-0.719
		c-0.418-0.818-0.096-1.813,0.718-2.234C24.063,22.105,25.065,22.426,25.478,23.242"/>
</g>
</svg>
