<?xml version="1.0"?>
<!-- Converted with SVG Converter - Version 0.9.5 (Compiled Mon May 30 09:08:51 2011) - Copyright (C) 2011 Nokia -->
<svg xmlns="http://www.w3.org/2000/svg" width="53.242px" x="0px" version="1.1" y="0px" height="54.025px" viewBox="0 0 53.242 54.025" xmlns:xlink="http://www.w3.org/1999/xlink" baseProfile="tiny" id="svg6292" xml:space="preserve">
 <path fill-opacity="0.125" id="path1556" d="M29.492,2.514c-0.086-0.096,6.197,4.822,6.197,4.822s5.25,34.233,5.164,34.233&#xd;&#xa;&#x9;s-26.769,7.618-26.769,7.618c-6.456,1.157-7.23-4.821-7.402-5.786c-0.086-0.289-4.391-32.787-4.39-32.979&#xd;&#xa;&#x9;C2.465,9.458,29.578,2.611,29.492,2.514z"/>
 <path fill-opacity="0.125" id="path1574" d="M52.265,40.764c0.001,6.878-5.575,12.455-12.454,12.455s-12.455-5.577-12.454-12.455&#xd;&#xa;&#x9;c-0.001-6.879,5.575-12.456,12.454-12.456S52.266,33.885,52.265,40.764z"/>
 <path fill-opacity="0.125" id="path1725" d="M30.47,3.322c-0.086-0.097,6.197,4.821,6.197,4.821s5.251,34.233,5.165,34.233&#xd;&#xa;&#x9;s-26.77,7.618-26.77,7.618c-6.455,1.157-7.23-4.821-7.402-5.786c-0.086-0.289-4.39-32.787-4.39-32.979&#xd;&#xa;&#x9;C3.443,10.264,30.556,3.418,30.47,3.322z"/>
 <path fill-opacity="0.125" id="path1731" d="M53.242,41.571c0.001,6.879-5.575,12.455-12.454,12.455S28.333,48.45,28.334,41.571&#xd;&#xa;&#x9;c-0.001-6.879,5.575-12.456,12.454-12.456S53.243,34.692,53.242,41.571z"/>
 <linearGradient gradientTransform="matrix(0.0927 0 0 -0.1123 -260.9854 -355.7009)" id="path1695_1_" y1="-3324.4172" x1="3022.2415" y2="-3572.3342" gradientUnits="userSpaceOnUse" x2="3058.1472">
  <stop offset="0" style="stop-color:#0015A1"/>
  <stop offset="1" style="stop-color:#0E6EEA"/>
 </linearGradient>
 <path fill="url(#path1695_1_)" stroke="#0012AB" stroke-linejoin="round" id="path1695" stroke-width="2" d="M28.043,0.845&#xd;&#xa;&#x9;C27.957,0.749,2.135,7.402,2.049,7.499c-3.356,1.254,1.463,6.269,6.283,4.822C9.28,12.031,34.24,5.667,34.24,5.667&#xd;&#xa;&#x9;S39.491,39.9,39.406,39.9s-26.77,7.618-26.77,7.618c-6.455,1.157-7.23-4.821-7.402-5.786c-0.086-0.289-4.39-32.787-4.39-32.979&#xd;&#xa;&#x9;C1.016,7.788,28.129,0.941,28.043,0.845z"/>
 <radialGradient cx="1496.2307" cy="-6408.9033" gradientTransform="matrix(0.1757 0 0 -0.0592 -237.9311 -378.279)" id="path1696_1_" r="198.1909" gradientUnits="userSpaceOnUse">
  <stop offset="0" style="stop-color:#FFFFFF"/>
  <stop offset="1" style="stop-color:#FFFF00"/>
 </radialGradient>
 <path fill="url(#path1696_1_)" id="path1696" d="M27.951,0.817c0.087,0.097,5.768,3.954,5.682,3.954s-25.048,6.557-25.65,6.653&#xd;&#xa;&#x9;C3.42,12.678,1.011,8.628,1.527,8.146C2.474,7.953,28.038,0.817,27.951,0.817z"/>
 <radialGradient cx="1701.8723" cy="-3383.6575" gradientTransform="matrix(0.1611 0 0 -0.1078 -247.0543 -360.9094)" id="path1697_1_" r="192.4652" gradientUnits="userSpaceOnUse">
  <stop offset="0" style="stop-color:#FFFFFF;stop-opacity:0.9451"/>
  <stop offset="1" style="stop-color:#FFFFFF;stop-opacity:0"/>
 </radialGradient>
 <path fill="url(#path1697_1_)" id="path1697" d="M34.182,5.892c0,0.125,1.414,6.553,1.778,9.281&#xd;&#xa;&#x9;C16.079,15.805,25.567,27.68,4.369,29.013C3.481,23.286,1.4,9.628,1.4,9.877s2.556,2.365,4.667,2.738&#xd;&#xa;&#x9;C11.956,11.495,34.293,6.141,34.182,5.892z"/>
 <linearGradient gradientTransform="matrix(0.0788 0 0 -0.2446 -272.5696 -302.716)" id="path1698_1_" y1="-1392.0168" x1="3465.5637" y2="-1345.8844" gradientUnits="userSpaceOnUse" x2="3572.9124">
  <stop offset="0" style="stop-color:#FFFFFF;stop-opacity:0.9451"/>
  <stop offset="1" style="stop-color:#FFFFFF;stop-opacity:0"/>
 </linearGradient>
 <path fill="url(#path1698_1_)" id="path1698" d="M1.464,10.144l4.34,32.609c0,0,1.239,5.951,7.688,4.464&#xd;&#xa;&#x9;c-0.372-0.868-4.34-34.965-4.464-34.965C3.944,13.864,1.712,10.144,1.464,10.144z"/>
 <linearGradient gradientTransform="matrix(0.0717 -0.0131 -0.0137 -0.0945 -246.8388 -348.356)" id="path1700_1_" y1="-4251.5283" x1="2948.1262" y2="-4461.0049" gradientUnits="userSpaceOnUse" x2="2919.3059">
  <stop offset="0" style="stop-color:#FFFF00;stop-opacity:0.8549"/>
  <stop offset="1" style="stop-color:#FFFFC8;stop-opacity:0.5137"/>
 </linearGradient>
 <path stroke-opacity="0.8171" fill="url(#path1700_1_)" stroke="#FEBF00" stroke-linejoin="round" fill-opacity="0.5366" id="path1700" stroke-linecap="round" stroke-width="2" d="&#xd;&#xa;&#x9;M20.509,13.977c0.233,1.609,0.85,5.327,0.86,5.4c0.01,0.073-4.609,1.168-5.622,1.503c-2.225,0.607-1.459,3.711,0.437,3&#xd;&#xa;&#x9;c1.613-0.37,5.547-1.49,5.621-1.503c0.073-0.014,1.54,10.082,1.795,11.313c0.298,2.574,3.705,2.027,3.344-0.461&#xd;&#xa;&#x9;c-0.287-1.975-1.53-10.534-1.647-11.339c0.96-0.176,3.1-0.934,5.333-1.534c1.927-1.018,1.611-3.83-0.631-3.164&#xd;&#xa;&#x9;c-1.482,0.371-5.043,1.306-5.096,1.466c-0.053,0.159-0.86-5.4-0.934-5.388C23.628,10.929,20.19,11.783,20.509,13.977z"/>
 <linearGradient gradientTransform="matrix(0.0868 -0.0158 -0.0111 -0.0765 -242.3447 -351.0111)" id="path1701_1_" y1="-5292.2871" x1="2330.178" y2="-5355.4341" gradientUnits="userSpaceOnUse" x2="2349.8347">
  <stop offset="0" style="stop-color:#FFFFFF;stop-opacity:0.9451"/>
  <stop offset="1" style="stop-color:#FFFFFF;stop-opacity:0"/>
 </linearGradient>
 <path fill="url(#path1701_1_)" fill-opacity="0.7683" id="path1701" d="M23.951,13.119c-0.923-0.3-1.486,0.107-2.014,0.857&#xd;&#xa;&#x9;c0.053,0.882,1.318,6.889,1.434,7.165s-0.896-0.89-0.896-0.89S22.2,20.778,21.815,20.7c-0.387-0.078-5.676,0.654-6.229,0.979&#xd;&#xa;&#x9;c-0.553,0.324-0.876,0.681-0.896,1.056s-0.533-1.092,0.374-1.555c0.908-0.463,6.303-1.769,6.229-1.755&#xd;&#xa;&#x9;c-0.073,0.013-0.656-5.732-0.657-6.253C20.634,12.652,22.818,10.656,23.951,13.119z"/>
 <linearGradient gradientTransform="matrix(0.1751 -0.032 -0.0055 -0.0379 -220.0722 -372.2314)" id="path1702_1_" y1="-11207.8301" x1="1039.9875" y2="-11207.8301" gradientUnits="userSpaceOnUse" x2="1086.6331">
  <stop offset="0" style="stop-color:#FFFFFF;stop-opacity:0.9451"/>
  <stop offset="1" style="stop-color:#FFFFFF;stop-opacity:0"/>
 </linearGradient>
 <path fill="url(#path1702_1_)" id="path1702" d="M25.004,18.463c-0.094,0.389,1.293,0.513-1.094,1.574&#xd;&#xa;&#x9;c-0.344,0.211,7.058-1.709,7.747-1.611c0.688,0.097,0.191-0.263,0.384-0.059c-0.371-0.713-0.523-1.337-1.421-1.321&#xd;&#xa;&#x9;C29.722,17.06,25.088,18.522,25.004,18.463z"/>
 <linearGradient gradientTransform="matrix(0.0321 -0.0059 -0.03 -0.2067 -249.5926 -293.4164)" id="path1703_1_" y1="-1766.1858" x1="6783.4102" y2="-1745.2089" gradientUnits="userSpaceOnUse" x2="6938.4902">
  <stop offset="0" style="stop-color:#FFFFFF;stop-opacity:0.9451"/>
  <stop offset="1" style="stop-color:#FFFFFF;stop-opacity:0"/>
 </linearGradient>
 <path fill="url(#path1703_1_)" id="path1703" d="M23.169,21.102c-0.474,1.635-1.361,1.31-1.352,1.382&#xd;&#xa;&#x9;c0.011,0.073,1.725,10.834,1.965,11.459c0.241,0.625,0.84,1.502,1.852,0.989c0.532,0.051,0.075,0.214,0.075,0.214&#xd;&#xa;&#x9;s-0.653-0.47-0.915-1.76C24.531,32.096,23.117,21.26,23.169,21.102z"/>
 <linearGradient gradientTransform="matrix(0.0622 -0.0114 -0.0155 -0.1066 -247.7183 -337.5434)" id="path1704_1_" y1="-3825.1252" x1="3542.886" y2="-3720.2629" gradientUnits="userSpaceOnUse" x2="3392.4211">
  <stop offset="0" style="stop-color:#FFD800;stop-opacity:0.9451"/>
  <stop offset="1" style="stop-color:#FFFF00;stop-opacity:0"/>
 </linearGradient>
 <path fill="url(#path1704_1_)" fill-opacity="0.5373" id="path1704" d="M24.738,35.144c1.576-0.511,1.826-0.854,1.71-2.17&#xd;&#xa;&#x9;s-1.588-11.453-1.505-11.394c0.084,0.059,5.157-0.645,5.825-1.213c0.668-0.567,1.085-0.792,0.886-1.647s-0.335-0.757-0.251-0.697&#xd;&#xa;&#x9;c0.083,0.059-0.104,1.356-0.823,1.563c-0.721,0.205-5.178,1.539-5.867,1.442c-0.688-0.097-0.814-0.445-0.721-0.314&#xd;&#xa;&#x9;c0.095,0.132,0.21,0.408,0.304,1.06c0.095,0.651,1.651,10.847,1.568,11.308S26.115,34.299,24.738,35.144z"/>
 <linearGradient gradientTransform="matrix(0.1782 -0.0325 -0.0054 -0.0372 -219.3955 -372.1525)" id="path1705_1_" y1="-11458.8877" x1="963.6038" y2="-11458.8877" gradientUnits="userSpaceOnUse" x2="1008.679">
  <stop offset="0" style="stop-color:#FFD800;stop-opacity:0.9451"/>
  <stop offset="1" style="stop-color:#FFFF00;stop-opacity:0"/>
 </linearGradient>
 <path fill="url(#path1705_1_)" id="path1705" d="M14.211,22.477c0.262,1.29,0.732,1.427,1.327,1.393s5.992-1.095,6.076-1.035&#xd;&#xa;&#x9;c0.083,0.059,0.636-0.265,0.729-0.653s-0.292,0.053-1.472,0.194c-1.18,0.141-4.207,0.991-5.126,0.861&#xd;&#xa;&#x9;C14.827,23.108,14.002,22.59,14.211,22.477z"/>
 <linearGradient gradientTransform="matrix(0.0382 -0.007 -0.0253 -0.1738 -249.9114 -307.5756)" id="path1706_1_" y1="-2092.2444" x1="5752.7129" y2="-2092.2444" gradientUnits="userSpaceOnUse" x2="5799.5039">
  <stop offset="0" style="stop-color:#FFD800;stop-opacity:0.9451"/>
  <stop offset="1" style="stop-color:#FFFF00;stop-opacity:0"/>
 </linearGradient>
 <path fill="url(#path1706_1_)" id="path1706" d="M21.944,11.988c1.869-0.044,1.964,1.127,2.027,1.562&#xd;&#xa;&#x9;c0.063,0.435,0.746,4.62,0.726,4.996c-0.021,0.375,0.168,0.638-0.229,1.008c-0.396,0.369-0.459,0.455-0.47,0.383&#xd;&#xa;&#x9;s0.24-0.415,0.113-1.284c-0.126-0.869-0.527-5.181-0.83-5.72C22.978,12.393,22.1,12.033,21.944,11.988z"/>
 <radialGradient cx="5071.7617" cy="-7034.8506" gradientTransform="matrix(0.0534 0 0 -0.0534 -234.2479 -347.7875)" id="path1713_1_" r="432.914" gradientUnits="userSpaceOnUse">
  <stop offset="0" style="stop-color:#FF0005"/>
  <stop offset="1" style="stop-color:#FFA50C"/>
 </radialGradient>
 <path fill="url(#path1713_1_)" stroke="#0070CA" id="path1713" stroke-width="2" d="M50.816,39.094&#xd;&#xa;&#x9;c0.001,6.879-5.575,12.455-12.454,12.455s-12.454-5.576-12.454-12.455s5.575-12.456,12.454-12.456S50.817,32.216,50.816,39.094z"/>
 <radialGradient cx="3849.3606" cy="-9306.208" gradientTransform="matrix(0.0697 0 0 -0.041 -229.9246 -352.8848)" id="path1714_1_" r="287.969" gradientUnits="userSpaceOnUse">
  <stop offset="0" style="stop-color:#FFFFFF"/>
  <stop offset="1" style="stop-color:#FFFFFF;stop-opacity:0"/>
 </radialGradient>
 <path fill="url(#path1714_1_)" fill-opacity="0.5549" id="path1714" d="M49.472,34.781c-4.485-12.454-23.954-9.878-23.381,5.869&#xd;&#xa;&#x9;C40.74,41.079,33.821,35.545,49.472,34.781z"/>
 <radialGradient cx="3246.7415" cy="-11659.96" gradientTransform="matrix(0.082 0 0 -0.0348 -226.5832 -355.6378)" id="path1715_1_" r="149.54" gradientUnits="userSpaceOnUse">
  <stop offset="0" style="stop-color:#FFFFFF;stop-opacity:0.4706"/>
  <stop offset="1" style="stop-color:#FFFFFF;stop-opacity:0"/>
 </radialGradient>
 <path fill="url(#path1715_1_)" fill-opacity="0.6157" id="path1715" d="M49.042,44.372c-4.199,7.539-13.026,8.589-18.609,4.151&#xd;&#xa;&#x9;C38.068,39.934,49.042,44.42,49.042,44.372z"/>
 <rect width="2.004" x="37.448" y="28.652" fill="#DC6E3C" height="1.956" id="rect1716"/>
 <rect width="2.004" x="46.752" y="38.121" fill="#DC6E3C" height="1.956" id="rect1717"/>
 <rect width="2.004" x="37.161" y="47.235" fill="#DC6E3C" height="1.956" id="rect1718"/>
 <rect width="2.005" x="27.951" y="37.883" fill="#DC6E3C" height="1.956" id="rect1719"/>
 <path id="path1720" d="M40.072,39.008c0,0.975-0.79,1.765-1.766,1.765c-0.975,0-1.766-0.79-1.766-1.765&#xd;&#xa;&#x9;c0-0.976,0.791-1.766,1.766-1.766C39.281,37.242,40.072,38.032,40.072,39.008z"/>
 <path fill="#FFFFFF" id="path1721" d="M39.213,39.007c0,0.501-0.406,0.907-0.907,0.907S37.4,39.508,37.4,39.007&#xd;&#xa;&#x9;s0.405-0.907,0.906-0.907S39.213,38.506,39.213,39.007z"/>
 <rect width="1.527" x="37.59" y="30.943" height="6.68" id="rect1722"/>
 <rect width="1.622" x="35.886" y="39.947" height="4.628" id="rect1723" transform="matrix(-0.9063 -0.4227 0.4227 -0.9063 52.0885 96.0728)"/>
</svg>
