<?xml version="1.0" encoding="utf-8"?>
<!-- Generator: Adobe Illustrator 16.0.0, SVG Export Plug-In . SVG Version: 6.00 Build 0)  -->
<!DOCTYPE svg PUBLIC "-//W3C//DTD SVG 1.1//EN" "http://www.w3.org/Graphics/SVG/1.1/DTD/svg11.dtd">
<svg version="1.1" id="Layer_1" xmlns="http://www.w3.org/2000/svg" xmlns:xlink="http://www.w3.org/1999/xlink" x="0px" y="0px"
	 width="480px" height="800px" viewBox="0 0 480 800" enable-background="new 0 0 480 800" xml:space="preserve">
<g>
	<defs>
		<rect id="SVGID_1_" width="480" height="800"/>
	</defs>
	<clipPath id="SVGID_2_">
		<use xlink:href="#SVGID_1_"  overflow="visible"/>
	</clipPath>
	<g clip-path="url(#SVGID_2_)">
		<rect x="10.602" y="-22.387" fill="none" width="467.976" height="1013.95"/>
		<text transform="matrix(1 0 0 1 10.6021 -0.1475)"><tspan x="0" y="0" fill="#FF8800" font-family="'TimesNewRomanPSMT'" font-size="32">5</tspan><tspan x="16" y="0" font-family="'TimesNewRomanPSMT'" font-size="32"> Jerger vsd vsev sevsgadfgda.a dg</tspan><tspan x="449.656" y="0" font-family="'TimesNewRomanPSMT'" font-size="32">-</tspan><tspan x="0" y="38.4" font-family="'TimesNewRomanPSMT'" font-size="32">fadfg adfb adfbgarg aergadfbdaf</tspan><tspan x="414.875" y="38.4" font-family="'TimesNewRomanPSMT'" font-size="32">-</tspan><tspan x="0" y="76.8" font-family="'TimesNewRomanPSMT'" font-size="32">badrgae rgaer gdafbgdsfbg adfga </tspan><tspan x="0" y="115.2" font-family="'TimesNewRomanPSMT'" font-size="32">drgadrg argadvb are ea.</tspan><tspan x="0" y="153.6" fill="#0088FF" font-family="'TimesNewRomanPSMT'" font-size="32">6</tspan><tspan x="16" y="153.6" font-family="'TimesNewRomanPSMT'" font-size="32"> Jef s egfsg sg sg arga rgaerg.</tspan><tspan x="106.863" y="230.4" font-family="'TimesNewRomanPS-BoldMT'" font-size="32">GEG EFW FEWE</tspan><tspan x="27.281" y="259.2" font-family="'TimesNewRomanPS-ItalicMT'" font-size="24">asdasdadw awd awd adwa wdwd asds waa</tspan><tspan x="99.632" y="288" font-family="'TimesNewRomanPS-ItalicMT'" font-size="24"> wd a adsda wda dsd aw dw</tspan><tspan x="0" y="355.2" fill="#0088FF" font-family="'TimesNewRomanPSMT'" font-size="32">1</tspan><tspan x="16" y="355.2" font-family="'TimesNewRomanPSMT'" font-size="32"> Rdf fwef awef awef  asd ad awd </tspan><tspan x="0" y="393.6" font-family="'TimesNewRomanPSMT'" font-size="32">,awd awd a.wda .</tspan><tspan x="222.141" y="393.6" font-family="'TimesNewRomanPSMT'" font-size="32" text-decoration=" underline">wd a/wda</tspan><tspan x="345.656" y="393.6" font-family="'TimesNewRomanPSMT'" font-size="32">. wda. </tspan><tspan x="0" y="431.999" font-family="'TimesNewRomanPSMT'" font-size="32">dw.aw dawd awda dcad awd ad.a </tspan><tspan x="0" y="470.399" font-family="'TimesNewRomanPSMT'" font-size="32">wd</tspan><tspan x="0" y="508.8" fill="#0088FF" font-family="'TimesNewRomanPSMT'" font-size="32">2</tspan><tspan x="16" y="508.8" font-family="'TimesNewRomanPSMT'" font-size="32"> He ewf wef wef wef. </tspan><tspan x="301.187" y="508.8" fill="#903C00" font-family="'TimesNewRomanPSMT'" font-size="32">Ee e wef </tspan><tspan x="0" y="547.2" fill="#903C00" font-family="'TimesNewRomanPSMT'" font-size="32">wef wef wef wef wef wecvswec sc </tspan><tspan x="0" y="585.601" fill="#903C00" font-family="'TimesNewRomanPSMT'" font-size="32">scscs cs ecsf evg w gwreg</tspan><tspan x="333.218" y="585.601" font-family="'TimesNewRomanPSMT'" font-size="32"> wef ec </tspan><tspan x="0" y="623.999" font-family="'TimesNewRomanPSMT'" font-size="32">sxzecsfs </tspan><tspan x="114.625" y="623.999" font-family="'TimesNewRomanPS-ItalicMT'" font-size="32">fscfsvcsv </tspan><tspan x="234.578" y="623.999" font-family="'TimesNewRomanPSMT'" font-size="32">es es fewef sefcs </tspan><tspan x="0" y="662.399" font-family="'TimesNewRomanPSMT'" font-size="32">efsfvcs ef secscsce ecq qec wevcs </tspan><tspan x="0" y="700.8" font-family="'TimesNewRomanPSMT'" font-size="32">rvsvsev swev.</tspan><tspan x="0" y="739.2" fill="#0088FF" font-family="'TimesNewRomanPSMT'" font-size="32">3</tspan><tspan x="16" y="739.2" font-family="'TimesNewRomanPSMT'" font-size="32"> He wef wefcw cvsv sves evf </tspan><tspan x="0" y="777.601" font-family="'TimesNewRomanPSMT'" font-size="32">wsefvw ecvwe.s efsef wef ef </tspan><tspan x="0" y="816.001" font-family="'TimesNewRomanPSMT'" font-size="32">wefwef wef wefwf wef wefwef </tspan><tspan x="0" y="854.399" font-family="'TimesNewRomanPSMT'" font-size="32">wecscsecsec .</tspan><tspan x="0" y="892.8" fill="#FF8800" font-family="'TimesNewRomanPSMT'" font-size="32">5</tspan><tspan x="16" y="892.8" font-family="'TimesNewRomanPSMT'" font-size="32"> Jerger vsd vsev sevsgadfgda.a dg</tspan><tspan x="449.656" y="892.8" font-family="'TimesNewRomanPSMT'" font-size="32">-</tspan><tspan x="0" y="931.2" font-family="'TimesNewRomanPSMT'" font-size="32">fadfg adfb adfbgarg aergadfbdaf</tspan><tspan x="414.875" y="931.2" font-family="'TimesNewRomanPSMT'" font-size="32">-</tspan><tspan x="0" y="969.601" font-family="'TimesNewRomanPSMT'" font-size="32">badrgae rgaer gdafbgdsfbg adfga </tspan></text>
	</g>
</g>
<rect display="none" fill="#FFFFFF" width="480" height="66"/>
<text transform="matrix(1 0 0 1 12.6016 53.1084)" display="none" font-family="'MyriadPro-Regular'" font-size="36">Module</text>
<text transform="matrix(1 0 0 1 144.5942 53.1084)" display="none" font-family="'MyriadPro-Regular'" font-size="36">Place 24:39</text>
<rect y="739" fill="#FF8800" fill-opacity="0.8" width="480" height="61"/>
<circle fill="none" stroke="#FFFFFF" stroke-width="3" stroke-miterlimit="10" cx="165" cy="769.859" r="22"/>
<circle display="none" fill="none" stroke="#000000" stroke-width="3" stroke-miterlimit="10" cx="444" cy="33.859" r="22"/>
<circle fill="none" stroke="#FFFFFF" stroke-width="3" stroke-miterlimit="10" cx="240" cy="769.859" r="22"/>
<circle fill="none" stroke="#FFFFFF" stroke-width="3" stroke-miterlimit="10" cx="315" cy="769.859" r="22"/>
<polygon display="none" stroke="#000000" stroke-width="3" stroke-miterlimit="10" points="443.603,23.262 453.5,37.527 
	433.75,37.427 "/>
<text transform="matrix(1 0 0 1 423.1563 754.6797)" fill="#FFFFFF" font-family="'TimesNewRomanPS-ItalicMT'" font-size="60.9167">...</text>
<path display="none" d="M443.336,31.96c-0.071-1.229-0.319-2.45-0.748-3.661c-0.606-1.746-0.909-2.948-0.909-3.608
	c0-0.926,0.219-1.63,0.656-2.111c0.436-0.481,0.974-0.721,1.617-0.721c0.549,0,1.031,0.24,1.441,0.721
	c0.409,0.481,0.614,1.167,0.614,2.058c0,0.802-0.235,1.92-0.708,3.354c-0.473,1.434-0.761,2.756-0.868,3.968
	c0.98-0.623,1.862-1.38,2.646-2.271c1.21-1.408,2.111-2.281,2.698-2.62c0.587-0.338,1.185-0.507,1.79-0.507
	c0.59,0,1.084,0.2,1.483,0.602c0.4,0.4,0.602,0.877,0.602,1.43c0,0.659-0.293,1.247-0.882,1.764
	c-0.587,0.517-2.057,1.033-4.408,1.55c-1.372,0.303-2.514,0.65-3.422,1.042c0.926,0.481,2.057,0.847,3.394,1.096
	c2.157,0.392,3.567,0.882,4.237,1.469c0.667,0.588,1.002,1.229,1.002,1.924c0,0.535-0.202,0.998-0.602,1.391
	c-0.4,0.392-0.868,0.587-1.404,0.587c-0.533,0-1.125-0.187-1.775-0.562c-0.651-0.374-1.529-1.211-2.634-2.512
	c-0.729-0.873-1.641-1.692-2.726-2.458c0.035,1.015,0.24,2.12,0.615,3.313c0.642,2.103,0.961,3.537,0.961,4.303
	c0,0.712-0.212,1.313-0.64,1.803c-0.429,0.49-0.883,0.735-1.364,0.735c-0.658,0-1.255-0.258-1.791-0.775
	c-0.374-0.374-0.561-0.971-0.561-1.791c0-0.855,0.205-1.884,0.614-3.087c0.41-1.203,0.67-2.031,0.775-2.485
	c0.106-0.454,0.206-1.126,0.294-2.017c-1.05,0.694-1.968,1.469-2.751,2.325c-1.302,1.461-2.282,2.387-2.942,2.779
	c-0.463,0.285-0.943,0.428-1.44,0.428c-0.607,0-1.124-0.205-1.552-0.615c-0.426-0.409-0.642-0.864-0.642-1.363
	c0-0.445,0.183-0.912,0.547-1.403c0.365-0.489,0.913-0.895,1.646-1.216c0.479-0.213,1.574-0.498,3.285-0.854
	c1.104-0.232,2.183-0.57,3.233-1.016c-0.962-0.481-2.11-0.855-3.447-1.123c-2.189-0.463-3.545-0.882-4.062-1.256
	c-0.803-0.588-1.203-1.301-1.203-2.138c0-0.481,0.201-0.923,0.602-1.324c0.399-0.4,0.868-0.601,1.403-0.601
	c0.588,0,1.21,0.187,1.87,0.561c0.66,0.375,1.479,1.127,2.459,2.259C441.321,30.459,442.32,31.337,443.336,31.96z"/>
<g>
	<path fill="#FFFFFF" d="M168.674,771.802l-0.691,0.085l-1.397-1.889l-0.264,0.148l1.271,1.821l-0.198,0.111
		c-0.33,0.188-0.658,0.53-0.984,1.029c-0.365,0.535-0.519,0.968-0.462,1.297l-2.262-2.649c-1.425,0.713-3.064,0.7-4.919-0.037
		c-1.914-0.767-3.389-2.064-4.425-3.895c-0.996-1.758-1.472-3.276-1.428-4.556c0.013-0.746,0.374-2.197,1.081-4.354
		c-0.418,2.104-0.072,4.136,1.038,6.096c1.185,2.091,2.746,3.645,4.688,4.663c2.18,1.135,4.198,1.175,6.054,0.123
		c0.274-0.155,0.604-0.342,0.989-0.56L168.674,771.802z M167.738,759.624c1.083,1.914,1.506,3.721,1.267,5.425
		c-0.251,1.836-1.245,3.246-2.98,4.229c-1.813,1.027-3.776,1.018-5.891-0.027c-1.929-0.946-3.465-2.429-4.609-4.448
		c-2.341-4.133-1.749-7.198,1.776-9.195c1.735-0.983,3.669-1.027,5.801-0.132C165.103,756.316,166.649,757.701,167.738,759.624z
		 M167.181,759.87c-0.989-1.746-2.4-2.994-4.232-3.745c-1.934-0.802-3.692-0.756-5.274,0.141c-3.186,1.804-3.718,4.576-1.599,8.318
		c1.043,1.841,2.444,3.188,4.205,4.042c1.93,0.947,3.712,0.957,5.349,0.03c1.582-0.896,2.488-2.179,2.718-3.847
		C168.559,763.263,168.17,761.615,167.181,759.87z M160.665,767.421c-0.545,0.089-1.199-0.207-1.962-0.89
		c-0.631-0.552-1.129-1.148-1.492-1.79c-0.444-0.784-0.61-1.513-0.5-2.188C157.994,763.897,159.312,765.521,160.665,767.421z
		 M176.698,782.435c0.229,0.404,0.271,0.851,0.127,1.339c-0.144,0.49-0.418,0.85-0.824,1.08c-0.429,0.242-0.911,0.287-1.447,0.137
		c-0.465-0.129-0.801-0.339-1.009-0.629l-7.123-9.426c-0.271-0.348-0.234-0.808,0.11-1.38c0.317-0.541,0.768-0.976,1.35-1.306
		c0.396-0.224,0.803-0.196,1.223,0.084l6.685,8.921L176.698,782.435z M166.929,760.271c1.427,2.518,1.38,4.882-0.139,7.091
		c0.403-2.362,0.093-4.445-0.93-6.251c-0.995-1.757-2.332-2.926-4.009-3.505c-1.678-0.58-3.34-0.442-4.989,0.413
		c0.355-0.5,0.819-0.91,1.391-1.233c1.427-0.81,3.033-0.816,4.817-0.023C164.742,757.511,166.028,758.68,166.929,760.271z
		 M163.872,761.25c0.565,0.998,0.643,2.186,0.233,3.563c-0.422-1.001-0.743-1.697-0.965-2.089c-0.384-0.678-0.995-1.257-1.833-1.739
		c-0.32-0.18-1.093-0.533-2.321-1.062c0.844-0.432,1.735-0.536,2.673-0.313C162.649,759.848,163.387,760.396,163.872,761.25z"/>
</g>
</svg>
