<?xml version="1.0" encoding="utf-8"?>
<!-- Generator: Adobe Illustrator 16.0.0, SVG Export Plug-In . SVG Version: 6.00 Build 0)  -->
<!DOCTYPE svg PUBLIC "-//W3C//DTD SVG 1.1//EN" "http://www.w3.org/Graphics/SVG/1.1/DTD/svg11.dtd">
<svg version="1.1" id="Layer_1" xmlns="http://www.w3.org/2000/svg" xmlns:xlink="http://www.w3.org/1999/xlink" x="0px" y="0px"
	 width="480px" height="800px" viewBox="0 0 480 800" enable-background="new 0 0 480 800" xml:space="preserve">
<g>
	<g>
		<defs>
			<rect id="SVGID_1_" x="-3.375" y="0" width="480" height="800"/>
		</defs>
		<clipPath id="SVGID_2_">
			<use xlink:href="#SVGID_1_"  overflow="visible"/>
		</clipPath>
		<g clip-path="url(#SVGID_2_)">
			<rect x="7.227" y="-22.387" fill="none" width="467.976" height="1013.95"/>
			<text transform="matrix(1 0 0 1 7.2268 -0.1477)" fill="#FF8800" font-family="'TimesNewRomanPSMT'" font-size="32">5</text>
			<text transform="matrix(1 0 0 1 23.2268 -0.1477)" font-family="'TimesNewRomanPSMT'" font-size="32"> Jerger vsd vsev sevsgadfgda.a dg</text>
			<text transform="matrix(1 0 0 1 456.8831 -0.1477)" font-family="'TimesNewRomanPSMT'" font-size="32">-</text>
			<text transform="matrix(1 0 0 1 7.2268 38.2527)" font-family="'TimesNewRomanPSMT'" font-size="32">fadfg adfb adfbgarg aergadfbdaf</text>
			<text transform="matrix(1 0 0 1 422.1018 38.2527)" font-family="'TimesNewRomanPSMT'" font-size="32">-</text>
			<text transform="matrix(1 0 0 1 7.2268 76.6531)" font-family="'TimesNewRomanPSMT'" font-size="32">badrgae rgaer gdafbgdsfbg adfga </text>
			<text transform="matrix(1 0 0 1 7.2268 115.0525)" font-family="'TimesNewRomanPSMT'" font-size="32">drgadrg argadvb are ea.</text>
			<text transform="matrix(1 0 0 1 7.2268 153.4529)" fill="#0088FF" font-family="'TimesNewRomanPSMT'" font-size="32">6</text>
			<text transform="matrix(1 0 0 1 23.2268 153.4529)" font-family="'TimesNewRomanPSMT'" font-size="32"> Jef s egfsg sg sg arga rgaerg.</text>
			<text transform="matrix(1 0 0 1 114.0901 230.2527)" font-family="'TimesNewRomanPS-BoldMT'" font-size="32">GEG EFW FEWE</text>
			<text transform="matrix(1 0 0 1 34.5081 259.0525)" font-family="'TimesNewRomanPS-ItalicMT'" font-size="24">asdasdadw awd awd adwa wdwd asds waa</text>
			<text transform="matrix(1 0 0 1 106.8586 287.8523)" font-family="'TimesNewRomanPS-ItalicMT'" font-size="24"> wd a adsda wda dsd aw dw</text>
			<text transform="matrix(1 0 0 1 7.2268 355.0525)" fill="#0088FF" font-family="'TimesNewRomanPSMT'" font-size="32">1</text>
			<text transform="matrix(1 0 0 1 23.2268 355.0525)" font-family="'TimesNewRomanPSMT'" font-size="32"> Rdf fwef awef awef  asd ad awd </text>
			<text transform="matrix(1 0 0 1 7.2268 393.4529)" font-family="'TimesNewRomanPSMT'" font-size="32">,awd awd a.wda .</text>
			
				<text transform="matrix(1 0 0 1 229.3679 393.4529)" font-family="'TimesNewRomanPSMT'" font-size="32" text-decoration=" underline">wd a/wda</text>
			<text transform="matrix(1 0 0 1 352.8831 393.4529)" font-family="'TimesNewRomanPSMT'" font-size="32">. wda. </text>
			<text transform="matrix(1 0 0 1 7.2268 431.8513)" font-family="'TimesNewRomanPSMT'" font-size="32">dw.aw dawd awda dcad awd ad.a </text>
			<text transform="matrix(1 0 0 1 7.2268 470.2517)" font-family="'TimesNewRomanPSMT'" font-size="32">wd</text>
			<text transform="matrix(1 0 0 1 7.2268 508.6521)" fill="#0088FF" font-family="'TimesNewRomanPSMT'" font-size="32">2</text>
			<text transform="matrix(1 0 0 1 23.2268 508.6521)" font-family="'TimesNewRomanPSMT'" font-size="32"> He ewf wef wef wef. </text>
			<text transform="matrix(1 0 0 1 308.4143 508.6521)" fill="#903C00" font-family="'TimesNewRomanPSMT'" font-size="32">Ee e wef </text>
			<text transform="matrix(1 0 0 1 7.2268 547.0525)" fill="#903C00" font-family="'TimesNewRomanPSMT'" font-size="32">wef wef wef wef wef wecvswec sc </text>
			<text transform="matrix(1 0 0 1 7.2268 585.4539)" fill="#903C00" font-family="'TimesNewRomanPSMT'" font-size="32">scscs cs ecsf evg w gwreg</text>
			<text transform="matrix(1 0 0 1 340.4456 585.4539)" font-family="'TimesNewRomanPSMT'" font-size="32"> wef ec </text>
			<text transform="matrix(1 0 0 1 7.2268 623.8513)" font-family="'TimesNewRomanPSMT'" font-size="32">sxzecsfs </text>
			<text transform="matrix(1 0 0 1 121.8518 623.8513)" font-family="'TimesNewRomanPS-ItalicMT'" font-size="32">fscfsvcsv </text>
			<text transform="matrix(1 0 0 1 241.8049 623.8513)" font-family="'TimesNewRomanPSMT'" font-size="32">es es fewef sefcs </text>
			<text transform="matrix(1 0 0 1 7.2268 662.2517)" font-family="'TimesNewRomanPSMT'" font-size="32">efsfvcs ef secscsce ecq qec wevcs </text>
			<text transform="matrix(1 0 0 1 7.2268 700.6521)" font-family="'TimesNewRomanPSMT'" font-size="32">rvsvsev swev.</text>
			<text transform="matrix(1 0 0 1 7.2268 739.0525)" fill="#0088FF" font-family="'TimesNewRomanPSMT'" font-size="32">3</text>
			<text transform="matrix(1 0 0 1 23.2268 739.0525)" font-family="'TimesNewRomanPSMT'" font-size="32"> He wef wefcw cvsv sves evf </text>
			<text transform="matrix(1 0 0 1 7.2268 777.4539)" font-family="'TimesNewRomanPSMT'" font-size="32">wsefvw ecvwe.s efsef wef ef </text>
			<text transform="matrix(1 0 0 1 7.2268 815.8533)" font-family="'TimesNewRomanPSMT'" font-size="32">wefwef wef wefwf wef wefwef </text>
			<text transform="matrix(1 0 0 1 7.2268 854.2517)" font-family="'TimesNewRomanPSMT'" font-size="32">wecscsecsec .</text>
			<text transform="matrix(1 0 0 1 7.2268 892.6521)" fill="#FF8800" font-family="'TimesNewRomanPSMT'" font-size="32">5</text>
			<text transform="matrix(1 0 0 1 23.2268 892.6521)" font-family="'TimesNewRomanPSMT'" font-size="32"> Jerger vsd vsev sevsgadfgda.a dg</text>
			<text transform="matrix(1 0 0 1 456.8831 892.6521)" font-family="'TimesNewRomanPSMT'" font-size="32">-</text>
			<text transform="matrix(1 0 0 1 7.2268 931.0525)" font-family="'TimesNewRomanPSMT'" font-size="32">fadfg adfb adfbgarg aergadfbdaf</text>
			<text transform="matrix(1 0 0 1 422.1018 931.0525)" font-family="'TimesNewRomanPSMT'" font-size="32">-</text>
			<text transform="matrix(1 0 0 1 7.2268 969.4539)" font-family="'TimesNewRomanPSMT'" font-size="32">badrgae rgaer gdafbgdsfbg adfga </text>
		</g>
	</g>
</g>
<rect x="0" y="0" fill="#FF8800" width="480" height="78.606"/>
<text transform="matrix(1 0 0 1 12.6023 33.9353)" fill="#FFFFFF" font-family="'MyriadPro-Regular'" font-size="24.3806">Module</text>
<text transform="matrix(1 0 0 1 12.6023 67.3132)" fill="#FFFFFF" font-family="'MyriadPro-Regular'" font-size="41.7953">Place 24:39</text>
<rect x="0" y="728" fill="#FF8800" fill-opacity="0.8" width="480" height="72"/>
<polygon display="none" stroke="#000000" stroke-width="3" stroke-miterlimit="10" points="443.603,23.262 453.5,37.527 
	433.75,37.427 "/>
<g>
	<circle fill="#FFFFFF" cx="433.399" cy="742.458" r="2.481"/>
	<circle fill="#FFFFFF" cx="443.407" cy="742.458" r="2.481"/>
	<circle fill="#FFFFFF" cx="453.417" cy="742.458" r="2.481"/>
</g>
<g>
	<g>
		<path fill="#FFFFFF" d="M141.975,763l-5.934,5.988c-0.787,0.793-0.778,2.073,0.013,2.858c0.396,0.392,0.909,0.584,1.423,0.584
			c0.52,0,1.04-0.199,1.436-0.599l5.918-5.975C143.631,765.156,142.653,764.172,141.975,763z"/>
		<path fill="#FFFFFF" d="M156.737,759.035c0-3.563-2.42-6.793-6.025-7.684c-0.635-0.158-1.275-0.232-1.9-0.232
			c-3.564-0.002-6.789,2.42-7.686,6.028c-0.156,0.634-0.23,1.271-0.23,1.897c0,1.414,0.395,2.77,1.081,3.955l0.347-0.35
			c0.532-0.539,1.293-0.705,1.975-0.517c-0.614-0.899-0.975-1.968-0.975-3.089c0-0.436,0.049-0.875,0.159-1.314
			c0.618-2.508,2.866-4.186,5.329-4.186c0.438,0,0.875,0.051,1.316,0.16c2.506,0.613,4.182,2.865,4.182,5.328
			c0,0.435-0.049,0.875-0.16,1.32c-0.611,2.506-2.863,4.182-5.332,4.182c-0.436,0-0.877-0.051-1.316-0.158
			c-0.664-0.163-1.266-0.448-1.797-0.815c0.174,0.668,0.01,1.406-0.512,1.933l-0.361,0.365c0.643,0.375,1.332,0.686,2.09,0.872
			c0.633,0.158,1.27,0.232,1.896,0.232c3.564,0,6.797-2.419,7.689-6.028l-1.178-0.291l1.178,0.289
			C156.66,760.302,156.737,759.664,156.737,759.035z"/>
		<path fill="#FFFFFF" d="M145.701,763.562c-0.56-0.387-1.029-0.875-1.406-1.428c-0.682-0.189-1.441-0.023-1.975,0.516l-0.346,0.352
			c0.678,1.171,1.656,2.154,2.855,2.857l0.36-0.365C145.711,764.969,145.877,764.23,145.701,763.562z"/>
	</g>
	<path fill="#FFFFFF" d="M169.331,763c0,13.083-10.549,23.688-23.563,23.688c-13.013,0-23.562-10.604-23.562-23.688
		c0-13.082,10.549-23.688,23.562-23.688C158.782,739.312,169.331,749.918,169.331,763z M145.769,742.312
		c-11.425,0-20.687,9.263-20.687,20.688s9.262,20.688,20.688,20.688c11.425,0,20.688-9.263,20.688-20.688
		C166.456,751.575,157.194,742.312,145.769,742.312z"/>
</g>
<g>
	<path fill="#FFFFFF" d="M354.353,763c0,13.083-10.549,23.688-23.563,23.688S307.228,776.083,307.228,763
		c0-13.082,10.549-23.688,23.563-23.688S354.353,749.918,354.353,763z M330.79,742.312c-11.425,0-20.688,9.263-20.688,20.688
		s9.263,20.688,20.688,20.688c11.425,0,20.688-9.263,20.688-20.688C351.478,751.575,342.215,742.312,330.79,742.312z"/>
	<g>
		<polygon fill="#FFFFFF" points="336.277,764.431 328.904,771.386 334.9,771.386 344.763,762.08 334.943,752.816 328.948,752.816 
			336.277,759.73 319.65,759.73 319.65,764.431 		"/>
	</g>
</g>
<path fill="#FFFFFF" d="M261.842,763c0,13.083-10.549,23.688-23.563,23.688S214.717,776.083,214.717,763
	c0-13.082,10.549-23.688,23.563-23.688S261.842,749.918,261.842,763z M238.28,742.312c-11.425,0-20.688,9.263-20.688,20.688
	s9.263,20.688,20.688,20.688c11.425,0,20.688-9.263,20.688-20.688C258.967,751.575,249.704,742.312,238.28,742.312z"/>
<g>
	<path fill="#FFFFFF" d="M247.981,762.118l-0.75-3.148l-2.757,0.295c-0.277-0.469-0.601-0.896-0.963-1.279l1.02-2.471l-2.759-1.699
		l-1.722,2.138c-0.597-0.156-1.211-0.233-1.832-0.238l-1.078-2.397l-3.133,0.84l0.369,2.654c-0.434,0.268-0.83,0.571-1.184,0.905
		l-2.379-0.979l-1.7,2.757l2.047,1.651c-0.149,0.563-0.237,1.146-0.25,1.734l-2.332,0.967l0.753,3.152l2.604-0.279
		c0.301,0.521,0.652,0.994,1.062,1.41l-0.959,2.322l2.759,1.697l1.653-2.049c0.562,0.139,1.134,0.217,1.718,0.223l0.979,2.359
		l3.152-0.75l-0.285-2.679c0.486-0.297,0.937-0.637,1.322-1.021l2.416,0.994l1.699-2.758l-2.138-1.723
		c0.129-0.525,0.2-1.064,0.209-1.607L247.981,762.118z M240.349,767.01c-2.223,1.139-4.955,0.264-6.092-1.963
		c-1.142-2.227-0.263-4.951,1.961-6.094c2.226-1.139,4.953-0.258,6.092,1.965C243.452,763.143,242.575,765.868,240.349,767.01"/>
	<path fill="#FFFFFF" d="M239.759,762.241c0.418,0.814,0.097,1.816-0.717,2.232c-0.814,0.418-1.816,0.096-2.234-0.72
		c-0.418-0.817-0.096-1.813,0.718-2.233C238.343,761.104,239.345,761.425,239.759,762.241"/>
</g>
<g>
	<path fill="#FFFFFF" d="M466.314,40.502c0,13.083-10.549,23.688-23.563,23.688s-23.563-10.604-23.563-23.688
		c0-13.082,10.549-23.688,23.563-23.688S466.314,27.42,466.314,40.502z M442.751,19.815c-11.425,0-20.688,9.263-20.688,20.688
		s9.263,20.688,20.688,20.688c11.425,0,20.688-9.263,20.688-20.688C463.439,29.077,454.176,19.815,442.751,19.815z"/>
	<g>
		<path fill="#FFFFFF" d="M452.452,39.62l-0.75-3.148l-2.757,0.295c-0.277-0.469-0.601-0.896-0.963-1.279l1.02-2.471l-2.759-1.699
			l-1.722,2.138c-0.597-0.156-1.211-0.233-1.832-0.238l-1.078-2.397l-3.133,0.84l0.369,2.654c-0.434,0.268-0.83,0.571-1.184,0.905
			l-2.379-0.979l-1.7,2.757l2.047,1.651c-0.149,0.563-0.237,1.146-0.25,1.734l-2.332,0.967l0.753,3.152l2.604-0.279
			c0.301,0.521,0.652,0.994,1.062,1.41l-0.959,2.322l2.759,1.697l1.653-2.049c0.562,0.139,1.134,0.217,1.718,0.223l0.979,2.359
			l3.152-0.75l-0.285-2.679c0.486-0.297,0.937-0.637,1.322-1.021l2.416,0.994l1.699-2.758l-2.138-1.723
			c0.129-0.525,0.2-1.064,0.209-1.607L452.452,39.62z M444.821,44.513c-2.223,1.139-4.955,0.264-6.092-1.963
			c-1.142-2.227-0.263-4.951,1.961-6.094c2.226-1.139,4.953-0.258,6.092,1.965C447.924,40.646,447.047,43.37,444.821,44.513"/>
		<path fill="#FFFFFF" d="M444.231,39.743c0.418,0.814,0.097,1.816-0.717,2.232c-0.814,0.418-1.816,0.096-2.234-0.72
			c-0.418-0.817-0.096-1.813,0.718-2.233C442.815,38.607,443.817,38.927,444.231,39.743"/>
	</g>
</g>
</svg>
