<?xml version="1.0" encoding="UTF-8" standalone="no"?>
<!-- Created with Inkscape (http://www.inkscape.org/) -->

<svg
   xmlns:dc="http://purl.org/dc/elements/1.1/"
   xmlns:cc="http://creativecommons.org/ns#"
   xmlns:rdf="http://www.w3.org/1999/02/22-rdf-syntax-ns#"
   xmlns:svg="http://www.w3.org/2000/svg"
   xmlns="http://www.w3.org/2000/svg"
   xmlns:sodipodi="http://sodipodi.sourceforge.net/DTD/sodipodi-0.dtd"
   xmlns:inkscape="http://www.inkscape.org/namespaces/inkscape"
   id="svg3623"
   version="1.1"
   inkscape:version="0.91 r13725"
   xml:space="preserve"
   width="68pt"
   height="68pt"
   viewBox="0 0 85 85"
   sodipodi:docname="arrow-left-inactive.svg"><metadata
     id="metadata3629"><rdf:RDF><cc:Work
         rdf:about=""><dc:format>image/svg+xml</dc:format><dc:type
           rdf:resource="http://purl.org/dc/dcmitype/StillImage" /><dc:title></dc:title></cc:Work></rdf:RDF></metadata><defs
     id="defs3627" /><sodipodi:namedview
     pagecolor="#ffffff"
     bordercolor="#666666"
     borderopacity="1"
     objecttolerance="10"
     gridtolerance="10"
     guidetolerance="10"
     inkscape:pageopacity="0"
     inkscape:pageshadow="2"
     inkscape:window-width="1368"
     inkscape:window-height="710"
     id="namedview3625"
     showgrid="false"
     inkscape:zoom="5.7529412"
     inkscape:cx="42.5"
     inkscape:cy="42.5"
     inkscape:window-x="0"
     inkscape:window-y="0"
     inkscape:window-maximized="1"
     inkscape:current-layer="layer2"
     units="pt"
     showguides="false" /><g
     id="g3631"
     inkscape:groupmode="layer"
     inkscape:label="ink_ext_XXXXXX"
     transform="matrix(1.25,0,0,-1.25,0,85)"
     style="display:none"><path
       style="color:#000000;font-style:normal;font-variant:normal;font-weight:normal;font-stretch:normal;font-size:medium;line-height:normal;font-family:sans-serif;text-indent:0;text-align:start;text-decoration:none;text-decoration-line:none;text-decoration-style:solid;text-decoration-color:#000000;letter-spacing:normal;word-spacing:normal;text-transform:none;direction:ltr;block-progression:tb;writing-mode:lr-tb;baseline-shift:baseline;text-anchor:start;white-space:normal;clip-rule:nonzero;display:inline;overflow:visible;visibility:visible;opacity:1;isolation:auto;mix-blend-mode:normal;color-interpolation:sRGB;color-interpolation-filters:linearRGB;solid-color:#000000;solid-opacity:1;fill:#bababa;fill-opacity:1;fill-rule:evenodd;stroke:none;stroke-width:5.54900599;stroke-linecap:butt;stroke-linejoin:miter;stroke-miterlimit:4;stroke-dasharray:none;stroke-dashoffset:0;stroke-opacity:1;color-rendering:auto;image-rendering:auto;shape-rendering:auto;text-rendering:auto;enable-background:accumulate"
       d="m 34,65.599609 c 17.64025,0 32,-14.359751 32,-32 C 66,15.959361 51.64025,1.5996094 34,1.5996094 c -17.64025,0 -32,14.3597516 -32,31.9999996 0,17.640249 14.35975,32 32,32 z m 0,-5.548828 C 19.358656,60.050781 7.548828,48.240952 7.548828,33.599609 7.548828,18.958266 19.358656,7.1484375 34,7.1484375 c 14.641344,0 26.451172,11.8098285 26.451172,26.4511715 0,14.641343 -11.809828,26.451172 -26.451172,26.451172 z"
       id="path3639"
       inkscape:connector-curvature="0" /><path
       style="opacity:0.96799999;fill:#808080;fill-opacity:1;stroke:none;stroke-width:6;stroke-miterlimit:4;stroke-dasharray:none;stroke-opacity:1"
       d="m 42.6752,56.959375 -0.139062,-22.751562 -0.1375,-22.75 -13.446876,11.55 -13.446875,11.55 13.584375,11.2 z m -5.245509,-11.438824 -6.407446,-5.282089 -7.037474,-5.802041 6.966506,-5.983083 6.478414,-5.564514 z"
       id="path4460"
       inkscape:connector-curvature="0"
       sodipodi:nodetypes="ccccccccccccc" /></g><g
     inkscape:groupmode="layer"
     id="layer2"
     inkscape:label="ink_ext_XXXXXX 2"><path
       style="color:#000000;font-style:normal;font-variant:normal;font-weight:normal;font-stretch:normal;font-size:medium;line-height:normal;font-family:sans-serif;text-indent:0;text-align:start;text-decoration:none;text-decoration-line:none;text-decoration-style:solid;text-decoration-color:#000000;letter-spacing:normal;word-spacing:normal;text-transform:none;direction:ltr;block-progression:tb;writing-mode:lr-tb;baseline-shift:baseline;text-anchor:start;white-space:normal;clip-rule:nonzero;display:inline;overflow:visible;visibility:visible;opacity:1;isolation:auto;mix-blend-mode:normal;color-interpolation:sRGB;color-interpolation-filters:linearRGB;solid-color:#000000;solid-opacity:1;fill:#c2c2c2;fill-opacity:1;fill-rule:evenodd;stroke:none;stroke-width:5.54900599;stroke-linecap:butt;stroke-linejoin:miter;stroke-miterlimit:4;stroke-dasharray:none;stroke-dashoffset:0;stroke-opacity:1;color-rendering:auto;image-rendering:auto;shape-rendering:auto;text-rendering:auto;enable-background:accumulate"
       d="m 42.5,3.000489 c 22.050313,0 40,17.949689 40,40 0,22.05031 -17.949687,40 -40,40 -22.050313,0 -40,-17.94969 -40,-40 0,-22.050311 17.949687,-40 40,-40 z m 0,6.936035 c -18.30168,0 -33.063965,14.762286 -33.063965,33.063965 0,18.301679 14.762285,33.063964 33.063965,33.063964 18.30168,0 33.063965,-14.762285 33.063965,-33.063964 C 75.563965,24.69881 60.80168,9.936524 42.5,9.936524 Z"
       id="path3639-4"
       inkscape:connector-curvature="0" /><path
       style="opacity:0.96799999;fill:#c2c2c2;fill-opacity:1;stroke:none;stroke-width:6;stroke-miterlimit:4;stroke-dasharray:none;stroke-opacity:1"
       d="m 53.344,13.800781 -0.173827,28.439453 -0.171875,28.4375 -16.808595,-14.4375 -16.808594,-14.4375 16.980469,-14 z"
       id="path4460-5"
       inkscape:connector-curvature="0"
       sodipodi:nodetypes="ccccccc" /></g><g
     inkscape:groupmode="layer"
     id="layer1"
     inkscape:label="ink_ext_XXXXXX 1"
     style="display:none"><path
       id="path4460-8"
       style="opacity:0.96799999;fill:#bfbfbf;fill-opacity:1;stroke:none;stroke-width:6;stroke-miterlimit:4;stroke-dasharray:none;stroke-opacity:1"
       d="m 33.13691,18.626128 0.144333,23.61394 0.142711,23.612319 L 47.380522,53.864594 61.337089,41.876802 47.23781,30.252276 Z M 42.5,9.936524 c 18.30168,0 33.063965,14.762286 33.063965,33.063965 0,18.301679 -14.762285,33.063964 -33.063965,33.063964 -18.30168,0 -33.0639649,-14.762285 -33.0639649,-33.063964 C 9.4360351,24.69881 24.19832,9.936524 42.5,9.936524 Z"
       inkscape:connector-curvature="0"
       sodipodi:nodetypes="cccccccsssss" /></g></svg>